<svg xmlns="http://www.w3.org/2000/svg" width="900" height="300" viewBox="0 0 900 300">
<defs><pattern id="p" width="24" height="24" patternUnits="userSpaceOnUse"><circle cx="4" cy="4" r="1.2" fill="#a6bdc6" opacity=".3"/></pattern></defs>
<path fill="#edf0e9" d="M0 0h300v300H0z"/><path fill="#f3ece0" d="M300 0h300v300H300z"/><path fill="#e6eef2" d="M600 0h300v300H600z"/><path fill="url(#p)" d="M0 0h900v300H0z"/>
<g transform="translate(150 141) rotate(-12)"><ellipse cx="0" cy="42" rx="56" ry="69" fill="#a9c2ce"/><path d="M-54 27q50 8 83 68M52 27Q1 44-24 101" fill="none" stroke="#d8e4e8" stroke-width="4"/><circle cy="-21" r="46" fill="#f0d8bc"/><path d="M-47-17c-9-73 106-72 95 0-18-14-31-28-48-37-9 20-27 34-47 37" fill="#f9f7ef"/><path d="M-23-15q7 8 13 0m19 0q7 8 13 0m-28 16q6 8 13 0" stroke="#947760" stroke-width="2.5" stroke-linecap="round" fill="none"/><ellipse cx="-27" cy="0" rx="8" ry="5" fill="#e7b6a4"/><ellipse cx="28" cy="0" rx="8" ry="5" fill="#e7b6a4"/><path d="m-6 40 6-9 6 9 10 3-7 8v10L0 56l-9 5V51l-7-8z" fill="#f6e8bc"/></g>
<g transform="translate(450 138) rotate(17)"><rect x="-9" y="35" width="18" height="67" rx="9" fill="#b99777"/><circle r="57" fill="#cfac83"/><circle cx="-41" cy="-44" r="20" fill="#cfac83"/><circle cx="41" cy="-44" r="20" fill="#cfac83"/><circle cx="-41" cy="-44" r="11" fill="#e8ccaa"/><circle cx="41" cy="-44" r="11" fill="#e8ccaa"/><ellipse cy="16" rx="26" ry="21" fill="#eddbbd"/><circle cx="-22" cy="-5" r="3.5" fill="#675445"/><circle cx="22" cy="-5" r="3.5" fill="#675445"/><path d="M-6 9q6-4 12 0-1 10-12 0" fill="#80624a"/><path d="m0 17 0 6m-7 0q7 7 14 0" stroke="#80624a" stroke-width="2" fill="none"/><path d="M0 57c-36-23-36 22 0 8 36 17 36-28 0-8" fill="#93b0c2"/></g>
<g transform="translate(750 153)"><ellipse cy="73" rx="87" ry="10" fill="#c6d9de"/><path d="M-64-7h128v70q-64 23-128 0z" fill="#adc4ce"/><path d="M-64-7c0-20 128-20 128 0v16c-12 23-24-13-37 6-13 25-28-8-41 6-15 15-23-13-35-7-11 7-15-4-15-10z" fill="#fffcf0"/><ellipse cy="-10" rx="64" ry="17" fill="#fffcf0"/><path d="M-29-9v-42m28 40v-49m29 51v-42" stroke="#cfb489" stroke-width="7"/><path d="M-29-55c-20-20 10-29 0 0M0-65c-20-20 10-29 0 0m28 10c-20-20 10-29 0 0" fill="#e6c77e"/><text y="48" text-anchor="middle" fill="#fffdf4" font-size="35" font-family="Georgia,serif">100</text></g>
<g fill="#cbb98c"><path d="m62 71 3 10 10 3-10 3-3 10-3-10-10-3 10-3z"/><path d="m230 212 3 9 9 3-9 3-3 9-3-9-9-3 9-3z"/><path d="m526 67 3 10 10 3-10 3-3 10-3-10-10-3 10-3z"/><path d="m375 206 3 9 9 3-9 3-3 9-3-9-9-3 9-3z"/><path d="m836 75 3 10 10 3-10 3-3 10-3-10-10-3 10-3z"/></g></svg>
